<?xml version="1.0" encoding="utf-8"?>
<!-- Generator: Adobe Illustrator 21.1.0, SVG Export Plug-In . SVG Version: 6.00 Build 0)  -->
<svg version="1.1" id="Слой_1" xmlns="http://www.w3.org/2000/svg" xmlns:xlink="http://www.w3.org/1999/xlink" x="0px" y="0px"
	 viewBox="0 0 15 11" enable-background="new 0 0 15 11" xml:space="preserve">
<g>
	<path id="path-1" fill="#FFFFFF" d="M2.6,5.1C2,4.5,1,4.5,0.4,5.1c-0.6,0.6-0.6,1.5,0,2L4,10.6c0.6,0.6,1.5,0.6,2.1,0l8.4-8.1
		c0.6-0.6,0.6-1.5,0-2s-1.5-0.6-2.1,0L5.1,7.5L2.6,5.1z"/>
</g>
<title>Mask</title>
<desc>Created with Sketch.</desc>
<g id="Symbols">
	<g id="Components-_x2F_-Itemized-List-_x2F_-2--_x2F_-Pickup-Enter-Info" transform="translate(-354.000000, -288.000000)">
		<g id="Group-4" transform="translate(23.000000, 273.000000)">
			<g id="Group-5" transform="translate(202.000000, 0.000000)">
				<g id="Group-3" transform="translate(116.000000, 0.000000)">
					<g id="Mask">
						<path id="path-1_1_" fill="#FFFFFF" d="M15.6,20.1c-0.6-0.6-1.5-0.6-2.1,0c-0.6,0.6-0.6,1.5,0,2l3.6,3.5
							c0.6,0.6,1.5,0.6,2.1,0l8.4-8.1c0.6-0.6,0.6-1.5,0-2s-1.5-0.6-2.1,0l-7.3,7.1L15.6,20.1z"/>
					</g>
				</g>
			</g>
		</g>
	</g>
</g>
</svg>
