<?xml version="1.0" encoding="utf-8"?>
<!-- Generator: Adobe Illustrator 21.1.0, SVG Export Plug-In . SVG Version: 6.00 Build 0)  -->
<svg version="1.1" id="Слой_1" xmlns="http://www.w3.org/2000/svg" xmlns:xlink="http://www.w3.org/1999/xlink" x="0px" y="0px"
	 viewBox="0 0 15 15" enable-background="new 0 0 15 15" xml:space="preserve">
<title>logout</title>
<desc>Created with Sketch.</desc>
<g id="Symbols">
	<g id="Components-_x2F_-Side-Menu-_x2F_-White" transform="translate(-82.000000, -962.000000)">
		<g id="logout" transform="translate(82.000000, 962.000000)">
			<path id="Shape" fill="#FFFFFF" d="M5.9,10.5l1.2,1.2l4.2-4.2L7.1,3.3L5.9,4.5l2.2,2.2H0v1.7h8.1L5.9,10.5z M13.3,0H1.7
				C0.7,0,0,0.8,0,1.7V5h1.7V1.7h11.7v11.7H1.7V10H0v3.3C0,14.2,0.7,15,1.7,15h11.7c0.9,0,1.7-0.8,1.7-1.7V1.7C15,0.8,14.2,0,13.3,0
				z"/>
		</g>
	</g>
</g>
</svg>
