<?xml version="1.0" encoding="utf-8"?>
<!-- Generator: Adobe Illustrator 19.2.1, SVG Export Plug-In . SVG Version: 6.00 Build 0)  -->
<svg version="1.1" id="Слой_1" xmlns="http://www.w3.org/2000/svg" xmlns:xlink="http://www.w3.org/1999/xlink" x="0px" y="0px"
	 viewBox="0 0 135.6 138.1" enable-background="new 0 0 135.6 138.1" xml:space="preserve">
<title>logo</title>
<desc>Created with Sketch.</desc>
<g id="Symbols">
	<g id="Brand-_x2F_-Logo-_x2F_-Green" transform="translate(-19.000000, -19.000000)">
		<g id="logo">
			<g id="Measured-Copy">
				<g id="Math_x2F_Measured">
					<g id="Oval">
						<path fill="#fff" d="M88.1,157.1c-24.1,0-46.8-12.8-59.2-33.5c-6.5-10.7-9.9-23-9.9-35.5C19,64,31.8,41.3,52.5,28.9
							C63.2,22.4,75.5,19,88,19c24.1,0,46.8,12.8,59.2,33.5c1.4,2.4,0.7,5.4-1.7,6.9c-2.4,1.4-5.4,0.7-6.9-1.7
							c-10.8-17.9-29.7-28.6-50.7-28.6c-10.7,0-21.1,2.9-30.3,8.4C39.7,48.3,29,67.2,29,88.2c0,10.7,2.9,21.1,8.4,30.3
							c10.8,17.9,29.7,28.6,50.7,28.6c10.7,0,21.1-2.9,30.3-8.4c5.4-3.2,10.2-7.3,14.3-12c1.8-2.1,5-2.3,7.1-0.5
							c2.1,1.8,2.3,5,0.5,7.1c-4.8,5.5-10.4,10.3-16.7,14.1C112.8,153.7,100.5,157.1,88.1,157.1z"/>
					</g>
					<g id="Oval-Copy">
						<path fill="#fff" d="M88.4,121.5c-11.5,0-22.4-6.1-28.3-16c-3.1-5.1-4.7-11-4.7-17c0-11.5,6.1-22.4,16-28.3
							c5.1-3.1,11-4.7,17-4.7c11.5,0,22.4,6.1,28.3,16c1.4,2.4,0.7,5.4-1.7,6.9c-2.4,1.4-5.4,0.7-6.9-1.7
							c-4.2-7-11.6-11.2-19.7-11.2c-4.2,0-8.2,1.1-11.8,3.3c-7,4.2-11.2,11.6-11.2,19.7c0,4.2,1.1,8.2,3.3,11.8
							c4.2,7,11.6,11.2,19.7,11.2c4.2,0,8.2-1.1,11.8-3.3c4.3-2.6,7.6-6.4,9.5-11c1-2.6,4-3.8,6.5-2.8c2.6,1,3.8,4,2.8,6.5
							c-2.7,6.7-7.4,12.1-13.6,15.9C100.3,119.9,94.4,121.5,88.4,121.5z"/>
					</g>
					<g id="Oval-Copy-2">
						<path fill="#fff" d="M147.3,117.4c-0.8,0-1.7-0.2-2.4-0.6c-2.4-1.3-3.3-4.4-1.9-6.8c1.1-1.9,1.6-4.1,1.6-6.2
							c0-4.7-2.5-9-6.6-11.3c-1.9-1.1-4.1-1.6-6.2-1.6c-4.7,0-9,2.5-11.3,6.6c-0.3,0.6-0.6,1.3-0.9,1.9c-0.9,2.6-3.8,4-6.4,3
							c-2.6-0.9-4-3.8-3-6.4c0.4-1.2,0.9-2.3,1.5-3.4c4-7.3,11.7-11.8,20-11.8c3.9,0,7.7,1,11.1,2.9c7.3,4,11.8,11.7,11.8,20
							c0,3.9-1,7.7-2.9,11.1C150.8,116.5,149.1,117.4,147.3,117.4z"/>
					</g>
				</g>
				<g id="Logo" transform="translate(197.000000, 33.000000)">
					<g id="Group-3">
					</g>
				</g>
				<g id="Group-2-Copy-2">
				</g>
				<g id="Group-4" transform="translate(197.000000, 30.000000)">
				</g>
			</g>
		</g>
	</g>
</g>
</svg>
