<?xml version="1.0" encoding="utf-8"?>
<!-- Generator: Adobe Illustrator 21.1.0, SVG Export Plug-In . SVG Version: 6.00 Build 0)  -->
<svg version="1.1" id="Слой_1" xmlns="http://www.w3.org/2000/svg" xmlns:xlink="http://www.w3.org/1999/xlink" x="0px" y="0px"
	 viewBox="0 0 17.8 17.8" enable-background="new 0 0 17.8 17.8" xml:space="preserve">
<g>
	<path id="path-1" fill="#FFFFFF" d="M10.9,9.5c1.7-2.3,1.5-5.6-0.6-7.7c-2.3-2.3-6.1-2.3-8.5,0c-2.3,2.3-2.3,6.1,0,8.5
		c2.1,2.1,5.4,2.3,7.7,0.6l1,1c-0.2,0.7,0,1.4,0.5,1.9l3.4,3.4c0.8,0.8,2,0.8,2.8,0s0.8-2,0-2.8L13.8,11c-0.5-0.5-1.3-0.7-1.9-0.5
		L10.9,9.5z M8.8,3.2c1.6,1.6,1.6,4.1,0,5.7c-1.6,1.6-4.1,1.6-5.7,0c-1.6-1.6-1.6-4.1,0-5.7C4.7,1.6,7.3,1.6,8.8,3.2z"/>
</g>
<g id="Symbols">
	<g id="_x2D_Icons-_x2F_-Basic-_x2F_-Zoom" transform="translate(-2.000000, -2.000000)">
		<g id="search" transform="translate(2.000000, 2.000000)">
			<g id="Icon">
				<path id="path-1_1_" d="M10.9,9.5c1.7-2.3,1.5-5.6-0.6-7.7c-2.3-2.3-6.1-2.3-8.5,0c-2.3,2.3-2.3,6.1,0,8.5
					c2.1,2.1,5.4,2.3,7.7,0.6l1,1c-0.2,0.7,0,1.4,0.5,1.9l3.4,3.4c0.8,0.8,2,0.8,2.8,0s0.8-2,0-2.8L13.8,11
					c-0.5-0.5-1.3-0.7-1.9-0.5L10.9,9.5z M8.8,3.2c1.6,1.6,1.6,4.1,0,5.7c-1.6,1.6-4.1,1.6-5.7,0c-1.6-1.6-1.6-4.1,0-5.7
					C4.7,1.6,7.3,1.6,8.8,3.2z"/>
			</g>
		</g>
	</g>
</g>
</svg>
