<?xml version="1.0" encoding="UTF-8"?><!DOCTYPE svg PUBLIC "-//W3C//DTD SVG 1.1//EN" "http://www.w3.org/Graphics/SVG/1.1/DTD/svg11.dtd"><svg xmlns="http://www.w3.org/2000/svg"><symbol id="icon-logo" viewBox="0 0 135.6 138.1">
    <title>
        logo
    </title>
    <path d="M69.1 138.1c-24.1 0-46.8-12.8-59.2-33.5C3.4 93.9 0 81.6 0 69.1 0 45 12.8 22.3 33.5 9.9 44.2 3.4 56.5 0 69 0c24.1 0 46.8 12.8 59.2 33.5 1.4 2.4.7 5.4-1.7 6.9-2.4 1.4-5.4.7-6.9-1.7-10.8-17.9-29.7-28.6-50.7-28.6-10.7 0-21.1 2.9-30.3 8.4C20.7 29.3 10 48.2 10 69.2c0 10.7 2.9 21.1 8.4 30.3 10.8 17.9 29.7 28.6 50.7 28.6 10.7 0 21.1-2.9 30.3-8.4 5.4-3.2 10.2-7.3 14.3-12 1.8-2.1 5-2.3 7.1-.5 2.1 1.8 2.3 5 .5 7.1-4.8 5.5-10.4 10.3-16.7 14.1-10.8 6.3-23.1 9.7-35.5 9.7z"/>
    <path d="M69.4 102.5c-11.5 0-22.4-6.1-28.3-16-3.1-5.1-4.7-11-4.7-17 0-11.5 6.1-22.4 16-28.3 5.1-3.1 11-4.7 17-4.7 11.5 0 22.4 6.1 28.3 16 1.4 2.4.7 5.4-1.7 6.9-2.4 1.4-5.4.7-6.9-1.7-4.2-7-11.6-11.2-19.7-11.2-4.2 0-8.2 1.1-11.8 3.3-7 4.2-11.2 11.6-11.2 19.7 0 4.2 1.1 8.2 3.3 11.8 4.2 7 11.6 11.2 19.7 11.2 4.2 0 8.2-1.1 11.8-3.3 4.3-2.6 7.6-6.4 9.5-11 1-2.6 4-3.8 6.5-2.8 2.6 1 3.8 4 2.8 6.5-2.7 6.7-7.4 12.1-13.6 15.9-5.1 3.1-11 4.7-17 4.7z"/>
    <path d="M128.3 98.4c-.8 0-1.7-.2-2.4-.6-2.4-1.3-3.3-4.4-1.9-6.8 1.1-1.9 1.6-4.1 1.6-6.2 0-4.7-2.5-9-6.6-11.3-1.9-1.1-4.1-1.6-6.2-1.6-4.7 0-9 2.5-11.3 6.6-.3.6-.6 1.3-.9 1.9-.9 2.6-3.8 4-6.4 3-2.6-.9-4-3.8-3-6.4.4-1.2.9-2.3 1.5-3.4 4-7.3 11.7-11.8 20-11.8 3.9 0 7.7 1 11.1 2.9 7.3 4 11.8 11.7 11.8 20 0 3.9-1 7.7-2.9 11.1-.9 1.7-2.6 2.6-4.4 2.6z"/>
</symbol></svg>