<?xml version="1.0" encoding="UTF-8"?><!DOCTYPE svg PUBLIC "-//W3C//DTD SVG 1.1//EN" "http://www.w3.org/Graphics/SVG/1.1/DTD/svg11.dtd"><svg xmlns="http://www.w3.org/2000/svg"><symbol id="icon-angle-down" viewBox="0 0 8.9 4.9">
    <title>
        Stroke 186
    </title>
    <path d="M4.5 4.9c-.2 0-.5-.1-.6-.2l-3.5-3C0 1.4-.1.7.3.3c.3-.4 1-.5 1.4-.1l2.9 2.5L7.5.2c.4-.3 1-.3 1.4.1.3.4.3 1-.1 1.4l-3.5 3c-.4.2-.6.2-.8.2z"/>
</symbol><symbol id="icon-angle-right" viewBox="0 0 10 17">
    <title>
        Shape
    </title>
    <path d="M0 15l6.2-6.5L0 2l1.9-2L10 8.5 1.9 17z"/>
</symbol><symbol id="icon-check" viewBox="0 0 15 11">
    <path d="M2.6 5.1C2 4.5 1 4.5.4 5.1c-.6.6-.6 1.5 0 2L4 10.6c.6.6 1.5.6 2.1 0l8.4-8.1c.6-.6.6-1.5 0-2S13-.1 12.4.5l-7.3 7-2.5-2.4z"/>
    <title>
        Mask
    </title>
    <path d="M2.6 5.1c-.6-.6-1.5-.6-2.1 0-.6.6-.6 1.5 0 2l3.6 3.5c.6.6 1.5.6 2.1 0l8.4-8.1c.6-.6.6-1.5 0-2s-1.5-.6-2.1 0L5.2 7.6 2.6 5.1z"/>
</symbol><symbol id="icon-checked" viewBox="0 0 426.7 307">
    <path d="M153.5 307c-8.7 0-17.3-3.3-23.9-9.9L9.9 177.4c-13.2-13.2-13.2-34.6 0-47.9 13.2-13.2 34.6-13.2 47.9 0l95.7 95.7L368.9 9.9c13.2-13.2 34.6-13.2 47.9 0 13.2 13.2 13.2 34.7 0 47.9L177.4 297.1c-6.6 6.6-15.2 9.9-23.9 9.9z"/>
</symbol><symbol id="icon-close" viewBox="0 0 48 48">
    <path d="M28.2 24L47.1 5.1c1.2-1.2 1.2-3.1 0-4.2C45.9-.3 44-.3 42.9.9L24 19.7 5.1.9C3.9-.3 2-.3.9.9-.3 2.1-.3 4 .9 5.1L19.7 24 .9 42.8C-.3 44-.3 45.9.9 47c.6.7 1.3 1 2.1 1s1.5-.3 2.1-.9L24 28.2l18.9 18.9c.6.6 1.4.9 2.1.9s1.5-.3 2.1-.9c1.2-1.2 1.2-3.1 0-4.2L28.2 24z"/>
</symbol><symbol id="icon-logo" viewBox="0 0 135.6 138.1">
    <title>
        logo
    </title>
    <path d="M69.1 138.1c-24.1 0-46.8-12.8-59.2-33.5C3.4 93.9 0 81.6 0 69.1 0 45 12.8 22.3 33.5 9.9 44.2 3.4 56.5 0 69 0c24.1 0 46.8 12.8 59.2 33.5 1.4 2.4.7 5.4-1.7 6.9-2.4 1.4-5.4.7-6.9-1.7-10.8-17.9-29.7-28.6-50.7-28.6-10.7 0-21.1 2.9-30.3 8.4C20.7 29.3 10 48.2 10 69.2c0 10.7 2.9 21.1 8.4 30.3 10.8 17.9 29.7 28.6 50.7 28.6 10.7 0 21.1-2.9 30.3-8.4 5.4-3.2 10.2-7.3 14.3-12 1.8-2.1 5-2.3 7.1-.5 2.1 1.8 2.3 5 .5 7.1-4.8 5.5-10.4 10.3-16.7 14.1-10.8 6.3-23.1 9.7-35.5 9.7z"/>
    <path d="M69.4 102.5c-11.5 0-22.4-6.1-28.3-16-3.1-5.1-4.7-11-4.7-17 0-11.5 6.1-22.4 16-28.3 5.1-3.1 11-4.7 17-4.7 11.5 0 22.4 6.1 28.3 16 1.4 2.4.7 5.4-1.7 6.9-2.4 1.4-5.4.7-6.9-1.7-4.2-7-11.6-11.2-19.7-11.2-4.2 0-8.2 1.1-11.8 3.3-7 4.2-11.2 11.6-11.2 19.7 0 4.2 1.1 8.2 3.3 11.8 4.2 7 11.6 11.2 19.7 11.2 4.2 0 8.2-1.1 11.8-3.3 4.3-2.6 7.6-6.4 9.5-11 1-2.6 4-3.8 6.5-2.8 2.6 1 3.8 4 2.8 6.5-2.7 6.7-7.4 12.1-13.6 15.9-5.1 3.1-11 4.7-17 4.7z"/>
    <path d="M128.3 98.4c-.8 0-1.7-.2-2.4-.6-2.4-1.3-3.3-4.4-1.9-6.8 1.1-1.9 1.6-4.1 1.6-6.2 0-4.7-2.5-9-6.6-11.3-1.9-1.1-4.1-1.6-6.2-1.6-4.7 0-9 2.5-11.3 6.6-.3.6-.6 1.3-.9 1.9-.9 2.6-3.8 4-6.4 3-2.6-.9-4-3.8-3-6.4.4-1.2.9-2.3 1.5-3.4 4-7.3 11.7-11.8 20-11.8 3.9 0 7.7 1 11.1 2.9 7.3 4 11.8 11.7 11.8 20 0 3.9-1 7.7-2.9 11.1-.9 1.7-2.6 2.6-4.4 2.6z"/>
</symbol><symbol id="icon-logout" viewBox="0 0 15 15">
    <title>
        logout
    </title>
    <path d="M5.9 10.5l1.2 1.2 4.2-4.2-4.2-4.2-1.2 1.2 2.2 2.2H0v1.7h8.1l-2.2 2.1zM13.3 0H1.7C.7 0 0 .8 0 1.7V5h1.7V1.7h11.7v11.7H1.7V10H0v3.3c0 .9.7 1.7 1.7 1.7h11.7c.9 0 1.7-.8 1.7-1.7V1.7C15 .8 14.2 0 13.3 0z"/>
</symbol><symbol id="icon-search" viewBox="0 0 17.8 17.8">
    <path d="M10.9 9.5c1.7-2.3 1.5-5.6-.6-7.7C8-.5 4.2-.5 1.8 1.8c-2.3 2.3-2.3 6.1 0 8.5 2.1 2.1 5.4 2.3 7.7.6l1 1c-.2.7 0 1.4.5 1.9l3.4 3.4c.8.8 2 .8 2.8 0s.8-2 0-2.8L13.8 11c-.5-.5-1.3-.7-1.9-.5l-1-1zM8.8 3.2c1.6 1.6 1.6 4.1 0 5.7-1.6 1.6-4.1 1.6-5.7 0-1.6-1.6-1.6-4.1 0-5.7 1.6-1.6 4.2-1.6 5.7 0z"/>
    <path d="M10.9 9.5c1.7-2.3 1.5-5.6-.6-7.7C8-.5 4.2-.5 1.8 1.8c-2.3 2.3-2.3 6.1 0 8.5 2.1 2.1 5.4 2.3 7.7.6l1 1c-.2.7 0 1.4.5 1.9l3.4 3.4c.8.8 2 .8 2.8 0s.8-2 0-2.8L13.8 11c-.5-.5-1.3-.7-1.9-.5l-1-1zM8.8 3.2c1.6 1.6 1.6 4.1 0 5.7-1.6 1.6-4.1 1.6-5.7 0-1.6-1.6-1.6-4.1 0-5.7 1.6-1.6 4.2-1.6 5.7 0z"/>
</symbol></svg>