<?xml version="1.0" encoding="UTF-8"?><!DOCTYPE svg PUBLIC "-//W3C//DTD SVG 1.1//EN" "http://www.w3.org/Graphics/SVG/1.1/DTD/svg11.dtd"><svg xmlns="http://www.w3.org/2000/svg"><symbol id="icon-angle-right" viewBox="0 0 10 17">
    <title>
        Shape
    </title>
    <path d="M0 15l6.2-6.5L0 2l1.9-2L10 8.5 1.9 17z"/>
</symbol><symbol id="icon-search" viewBox="0 0 17.8 17.8">
    <path d="M10.9 9.5c1.7-2.3 1.5-5.6-.6-7.7C8-.5 4.2-.5 1.8 1.8c-2.3 2.3-2.3 6.1 0 8.5 2.1 2.1 5.4 2.3 7.7.6l1 1c-.2.7 0 1.4.5 1.9l3.4 3.4c.8.8 2 .8 2.8 0s.8-2 0-2.8L13.8 11c-.5-.5-1.3-.7-1.9-.5l-1-1zM8.8 3.2c1.6 1.6 1.6 4.1 0 5.7-1.6 1.6-4.1 1.6-5.7 0-1.6-1.6-1.6-4.1 0-5.7 1.6-1.6 4.2-1.6 5.7 0z"/>
    <path d="M10.9 9.5c1.7-2.3 1.5-5.6-.6-7.7C8-.5 4.2-.5 1.8 1.8c-2.3 2.3-2.3 6.1 0 8.5 2.1 2.1 5.4 2.3 7.7.6l1 1c-.2.7 0 1.4.5 1.9l3.4 3.4c.8.8 2 .8 2.8 0s.8-2 0-2.8L13.8 11c-.5-.5-1.3-.7-1.9-.5l-1-1zM8.8 3.2c1.6 1.6 1.6 4.1 0 5.7-1.6 1.6-4.1 1.6-5.7 0-1.6-1.6-1.6-4.1 0-5.7 1.6-1.6 4.2-1.6 5.7 0z"/>
</symbol></svg>